<svg xmlns="http://www.w3.org/2000/svg" id="_圖層_1" data-name="圖層 1" version="1.1" viewBox="0 0 221.1 184.25"><defs><style>.cls-1{stroke-miterlimit:10;fill:none;stroke:#fff;stroke-width:4px}</style></defs><path d="M169.13 171.47H29.56a16.013 16.013 0 0 1-15.93-16.1V28.87a16.013 16.013 0 0 1 15.92-16.1h139.56" class="cls-1"/><path d="M129.32 12.95v20.49c0 3.77-3.57 6.83-7.96 6.83H73.59c-4.4 0-7.96-3.06-7.96-6.83V12.95h63.69ZM130.17 90.08c3.61 0 6.54 4.36 6.54 9.74v19.47c-.02 26.87-14.65 48.65-32.7 48.68H90.93c-18.05-.03-32.68-21.81-32.7-48.68V99.82c0-5.38 2.93-9.73 6.54-9.74h65.4" class="cls-1"/><path d="m83.5 40.11 6.91 14.24h15.08l5.96-14.7M129.38 24.61h20.66v8.14h-20.66zM207.46 35.75h-57.42V21.61h57.42zM58.01 116.37l7.34-1.66c1.6-.36 4.19-.36 5.79 0l4.45 1c1.6.36 4.19.36 5.79 0l4.45-1c1.6-.36 4.19-.36 5.79 0l4.45 1c1.6.36 4.19.36 5.79 0l4.45-1c1.6-.36 4.19-.36 5.79 0l4.45 1c1.6.36 4.19.36 5.79 0l4.45-1c1.6-.36 4.19-.36 5.79 0l4.45 1M57.52 130.59l7.34-1.66c1.6-.36 4.19-.36 5.79 0l4.45 1c1.6.36 4.19.36 5.79 0l4.45-1c1.6-.36 4.19-.36 5.79 0l4.45 1c1.6.36 4.19.36 5.79 0l4.45-1c1.6-.36 4.19-.36 5.79 0l4.45 1c1.6.36 4.19.36 5.79 0l4.45-1c1.6-.36 4.19-.36 5.79 0l4.45 1" class="cls-1"/><path d="m93.49 54.77 2.14 60.57 4.47.14 2.97-61.13" style="stroke-linecap:round;stroke-linejoin:round;fill:none;stroke:#fff;stroke-width:4px"/></svg>