<svg xmlns="http://www.w3.org/2000/svg" id="_圖層_1" data-name="圖層 1" version="1.1" viewBox="0 0 221.1 184.25"><defs><style>.cls-1{fill:none;stroke:#fff;stroke-miterlimit:10;stroke-width:4px}</style></defs><path d="M30.24 46.4v14.45c0 6.5 3.82 12.28 9.55 13.73l3.82 1.44 6.37 26.25h11.59s-3.7-14.14 7.36-14.14 8.21 14.14 8.21 14.14h11.05l6.37-26.25 3.82-1.44c5.73-1.44 9.56-7.22 9.56-13.73V46.4M173.38 8.77v23.17c0 7.95-6.5 14.45-14.45 14.45H8.89" class="cls-1"/><circle cx="69.88" cy="65.37" r="12.26" class="cls-1"/><path d="M136.69 46.59v25.7c0 7.72 6.18 14.01 13.89 14.16l7.4.32c2.07.04 3.93 1.25 4.8 3.13l16.67 35.84-.3 7.53 13.29 23.76 19.77-10.98-13.15-25.28-8.28-2.65-19.59-41.49a5.435 5.435 0 0 0-4.71-3.1l-10.07-.64a4.763 4.763 0 0 1-4.61-4.77V47.09" class="cls-1"/><path d="M124.44 47.02v33.57c0 8.54-.92 17.13-6.4 24.2-2.71 3.5-6.27 6.58-9.92 9.07-3.84 2.61-8.33 4.67-10.88 8.75-1.92 3.07-2.75 8.97-2.43 12.57h11.88c.16-2.89.27-6.5 2.32-8.73.95-1.03 2.14-1.79 3.34-2.5 3.34-1.97 6.93-3.6 9.92-6.11 2.81-2.37 5.28-5.37 7.34-8.39a50.3 50.3 0 0 0 6.87-14.8c1.47-5.29 1.63-10.41 1.65-15.85M151.54 87.68v87.8" class="cls-1"/></svg>