<svg xmlns="http://www.w3.org/2000/svg" id="_圖層_1" data-name="圖層 1" version="1.1" viewBox="0 0 235.7 184.25"><defs><style>.cls-1{fill:none;stroke:#fff;stroke-linecap:round;stroke-linejoin:round;stroke-width:4px}</style></defs><circle cx="166.53" cy="88.89" r="63.81" class="cls-1"/><circle cx="166.53" cy="88.89" r="54.69" class="cls-1"/><circle cx="166.53" cy="88.89" r="4.94" class="cls-1"/><path d="M166.53 43.7v7.73M166.53 126.35v7.74M211.73 88.89h-7.74M129.07 88.89h-7.73M124.07 27.88l14.07-8.12M131.1 23.82l5.01 8.67M209 27.88l-14.07-8.12M201.96 23.82l-5 8.67M155.05 7.43h22.98v9.43h-22.98zM166.53 16.85v8.23M166.53 59.24v24.71M106.21 109.74h-62a8.14 8.14 0 0 0-8.14 8.14h0a8.14 8.14 0 0 0 8.14 8.14h24.72c4.47 0 8.1 3.63 8.1 8.1v46.14M103.35 79.95H12.81c-4.5 0-8.16 3.65-8.16 8.16h0c0 4.5 3.65 8.16 8.16 8.16h90.33M98.67 3.86v39.16c0 4.46-3.62 8.08-8.08 8.08H12.8a8.14 8.14 0 0 0-8.14 8.14h0c0 4.5 3.65 8.14 8.14 8.14h93.64" class="cls-1"/></svg>