<svg xmlns="http://www.w3.org/2000/svg" id="_圖層_1" data-name="圖層 1" version="1.1" viewBox="0 0 174.27 184.25"><defs><style>.cls-1{fill:none;stroke:#fff;stroke-linecap:round;stroke-linejoin:round;stroke-width:4px}.cls-2{fill:#fff;stroke-width:0}</style></defs><path d="M86.86 134.78c-23.36 0-42.29-18.93-42.29-42.29 0-9.62 3.22-18.49 8.63-25.6L20.51 21.87a50.657 50.657 0 0 0-12.59 27.5h0A394.523 394.523 0 0 0 6.28 134l.34 3.82c2.07 23.45 21.71 41.44 45.25 41.44h69.99c4.08 0 8.03-.55 11.81-1.57l-32.87-45.27a42.256 42.256 0 0 1-13.93 2.36h-.01ZM165.8 49.38h0c-3.23-25.37-24.82-44.39-50.4-44.39H58.33a50.74 50.74 0 0 0-17.64 3.16l32.24 44.41c4.36-1.52 9.05-2.36 13.93-2.36 23.36 0 42.29 18.93 42.29 42.29 0 9.62-3.22 18.49-8.63 25.6l34.2 47.09c6.89-7.22 11.45-16.72 12.39-27.36l.34-3.82c2.48-28.19 1.93-56.56-1.64-84.63h-.01Z" class="cls-1"/><path d="M96.64 72.23c0 1.23-.3 12.62-11.01 18.88-9.93 5.81-12.52 15.18-13.19 20.1-2.79-2.64-4.58-6.35-5.11-10.76-.65-5.37.65-11.19 3.66-16.39 5.97-10.33 17.08-15.29 25.65-11.82ZM88.09 95.33c9.93-5.81 12.52-15.19 13.19-20.1 2.79 2.64 4.58 6.35 5.11 10.76.65 5.37-.65 11.19-3.66 16.39-4.69 8.12-12.56 12.93-19.88 12.93-1.99 0-3.94-.36-5.77-1.1 0-1.15.25-12.6 11.01-18.89Z" class="cls-2"/></svg>