<svg xmlns="http://www.w3.org/2000/svg" id="_圖層_1" data-name="圖層 1" version="1.1" viewBox="0 0 186.82 184.25"><defs><style>.cls-1{fill:none;stroke:#fff;stroke-linecap:round;stroke-linejoin:round;stroke-width:4px}.cls-2{fill:#fff;stroke-width:0}</style></defs><circle cx="93.81" cy="92.2" r="88.05" class="cls-1"/><circle cx="93.81" cy="92.2" r="11.73" class="cls-2"/><path d="M155.75 129.3c6.51-10.84 10.26-23.53 10.26-37.1 0-39.87-32.32-72.2-72.2-72.2s-72.2 32.33-72.2 72.2c0 13.57 3.75 26.25 10.26 37.1" class="cls-1"/><path d="m42.82 80.26 52.23 5.96c3.39.39 5.82 3.45 5.44 6.84-.39 3.9-4.53 6.47-8.19 5.12l-49.57-17.5c-.23-.08-.16-.47.1-.43h-.01Z" class="cls-2"/><path d="M93.81 20.01v12.33M57.69 29.61l6.17 10.69M31.21 55.99l10.69 6.17M21.47 92.07h12.34M155.72 129.3l-10.68-6.17M31.91 129.3l10.68-6.17M165.87 92.34h-12.34M156.26 56.22l-10.68 6.17M129.89 29.74l-6.17 10.69M55.53 134.77h74.36" class="cls-1"/></svg>