<svg id="_圖層_1" data-name="圖層 1" xmlns="http://www.w3.org/2000/svg" version="1.1" viewBox="0 0 186.82 184.25"><defs><style>.cls-1{font-family:Univers-Bold,Univers;font-size:51.49px;font-weight:700}.cls-1,.cls-2{fill:#fff}.cls-3{fill:none;stroke:#fff;stroke-miterlimit:10;stroke-width:7.07px}.cls-2{stroke-width:0}</style></defs><text class="cls-1" transform="translate(150.65 110.4)"><tspan x="0" y="0">B</tspan></text><path class="cls-3" d="M160.48 63.26c-11.26-26.62-37.62-45.3-68.34-45.3v20.39M92.14 145.9v20.39c30.43 0 56.58-18.32 68.01-44.54"/><path class="cls-3" d="M23.8 63.26c11.26-26.62 37.62-45.3 68.34-45.3v20.39M92.14 145.9v20.39c-30.43 0-56.58-18.32-68.01-44.54"/><path class="cls-2" d="M107.8 57.7c0 1.98-.48 20.21-17.64 30.24-15.91 9.3-20.05 24.32-21.13 32.19-4.47-4.24-7.33-10.17-8.18-17.24-1.03-8.6 1.05-17.92 5.86-26.26 9.56-16.55 27.36-24.48 41.09-18.94ZM94.12 94.7c15.91-9.3 20.05-24.32 21.13-32.2 4.47 4.23 7.33 10.17 8.18 17.24 1.03 8.59-1.05 17.92-5.86 26.26-7.52 13.01-20.12 20.71-31.85 20.71-3.19 0-6.31-.57-9.24-1.76 0-1.84.41-20.18 17.64-30.25Z"/><text class="cls-1" transform="translate(1.82 110.4)"><tspan x="0" y="0">A</tspan></text></svg>