<svg data-name="圖層 1" xmlns="http://www.w3.org/2000/svg" viewBox="0 0 32 32"><path d="M6.1 14.94v5.38l20.2-10.7c1.15 1.85 1.81 4.03 1.81 6.38 0 6.67-5.42 12.1-12.11 12.1-1.87 0-3.66-.43-5.24-1.2L6.7 29.02l.34.23A15.94 15.94 0 0 0 16 31.99c8.84 0 16-7.16 16-15.99 0-4.76-2.06-9.04-5.37-11.97L6.1 14.94ZM0 16.01c0 4.74 2.07 9.01 5.36 11.94l20.65-10.98.02-5.39L5.7 22.38a12.06 12.06 0 0 1-1.81-6.36c0-6.69 5.42-12.11 12.1-12.11 1.88 0 3.64.42 5.22 1.18l4.08-2.12-.35-.24A15.921 15.921 0 0 0 16 0C7.17 0 0 7.17 0 16.01" style="fill:#4e3e37"/></svg>