<svg xmlns="http://www.w3.org/2000/svg" viewBox="0 0 503.41 184.25"><defs><clipPath id="clippath-6"><path class="cls-2" d="M7.66 166.42h488.36v2.59H7.66z"/></clipPath><clipPath id="clippath-1"><path class="cls-2" d="M6.96 166.12h164.07v9.36H6.96z"/></clipPath><clipPath id="clippath-2"><path class="cls-2" d="M335.1 166.12h160.92v9.36H335.1z"/></clipPath><clipPath id="clippath"><path class="cls-2" d="M303.74 45.18c4.6 0 8.86 3.76 8.86 10.56H295c0-6.8 4.28-10.56 8.73-10.56m-34.31 16.16c0 19.34 14.78 34.52 37.08 34.52 12.65 0 20.88-1.88 28.16-5.47l.14-16.57c-7.43 3.73-16.84 5.71-23.51 5.71-9.97 0-16.75-6.29-16.3-12.97h40.27c1.48-22.75-15.05-38.51-32.15-38.51-19.33 0-33.7 14.38-33.7 33.29m69.07.41c0 15.52 12.72 34.11 36.69 34.11 7.46 0 13.85-1.78 19.1-4.7V70.45s-9.34 3.72-14.75 3.72c-9.96 0-14.89-6.21-14.89-12.54s4.9-12.41 14.87-12.41c5.53 0 14.77 3.82 14.77 3.82V32.35c-5.23-2.86-11.62-4.6-18.96-4.6-24.26 0-36.83 18.67-36.83 34m84.25.12c0-8.2 5.17-12.75 10.56-12.75s10.64 4.55 10.64 12.75-5.27 12.59-10.64 12.59-10.56-4.15-10.56-12.59m-26.16-.12c0 15.52 12.72 34.11 36.72 34.11s36.8-18.47 36.8-34.23-12.84-33.88-36.72-33.88-36.8 18.67-36.8 34M225.05 75.94c0-4.06 2.58-5.34 7.55-6.5 3.04-.69 6.08-1.51 8.8-2.9v5.57c-.33 6.27-4.3 9.41-9.35 9.41-4.05 0-7-2.76-7-5.57m-17.95-36.4c-2.19 3.81-3.05 6.34-3.22 10.81h20.66c1.51-4.38 5.04-6.75 8.74-6.75 3.12 0 6.08 1.63 7.92 4.73.31.46.44 1 .44 1.57 0 4.06-2.65 4.83-5.86 5.44-11.99 2.35-34.56 1.59-34.56 21.64 0 12.25 9.63 18.86 21.51 18.86 7.6 0 14.28-1.35 19.25-7.22l.56.72c2.23 2.07 6.07 5.29 18.26 5.29h8.27V76.7c-3.21-.45-4.42-1.79-4.3-8.97l-.03-14.79c0-19.26-17.45-25.23-29.63-25.23-5.99 0-22.15 1.52-28 11.83M50.36 49.47v14.65L105.34 35c3.12 5.03 4.92 10.98 4.92 17.38 0 18.15-14.75 32.92-32.95 32.92-5.1 0-9.96-1.18-14.26-3.25l-11.06 5.78.93.63a43.425 43.425 0 0 0 24.39 7.45c24.06 0 43.55-19.49 43.55-43.52 0-12.97-5.62-24.62-14.61-32.59L50.36 49.48Zm-16.61 2.9c0 12.91 5.64 24.53 14.59 32.51L104.55 55l.05-14.68-55.34 29.37.02-.04a32.669 32.669 0 0 1-4.91-17.28c0-18.21 14.75-32.96 32.93-32.96 5.12 0 9.9 1.14 14.2 3.21l11.1-5.77-.94-.65a43.48 43.48 0 0 0-24.35-7.42c-24.05 0-43.56 19.52-43.56 43.59m106.51-17.23c0 3.56 0 13.51 13.72 21.72 10.9 6.49 14.48 8.57 14.48 12.13 0 1.71-1.33 5.28-8.97 5.28-7.12 0-13.76-2.95-19.63-6.99v22.81c3.44 1.86 10.67 5.77 26.01 5.77 30.06 0 32.52-21.09 32.52-25.3 0-13.35-11.55-19.98-17.82-23.52-7.72-4.42-12.61-7.12-12.61-11.27 0-2.36 2.09-5.4 6.98-5.4 7.39 0 15.21 6.49 19.79 10.77V18.46c-5.31-4.92-14.25-9.7-25.31-9.7-16.92 0-29.17 10.18-29.17 26.36"/></clipPath><clipPath id="clippath-3"><path class="cls-2" d="M7.66 166.42h488.36v2.59H7.66z"/></clipPath><clipPath id="clippath-4"><path class="cls-2" d="M7.66 166.42h488.36v2.59H7.66z"/></clipPath><clipPath id="clippath-5"><path class="cls-2" d="M7.66 166.42h488.36v2.59H7.66z"/></clipPath><linearGradient id="linear-gradient-2" x1="1742.9" y1="2448.64" x2="1744.27" y2="2448.64" gradientTransform="matrix(119.8 0 0 -119.8 -208792.27 293517.6)" gradientUnits="userSpaceOnUse"><stop offset="0" stop-color="#163c1b"/><stop offset="1" stop-color="#53a849"/></linearGradient><linearGradient id="linear-gradient" x1="1752.59" y1="2439.38" x2="1753.95" y2="2439.38" gradientTransform="matrix(318.59 0 0 -318.59 -558325.55 777218.14)" gradientUnits="userSpaceOnUse"><stop offset="0" stop-color="#bdbebe"/><stop offset=".37" stop-color="#ececec"/><stop offset=".55" stop-color="#fff"/><stop offset=".7" stop-color="#ececec"/><stop offset="1" stop-color="#bdbebe"/></linearGradient><linearGradient id="linear-gradient-3" x1="1753.46" y1="2457.67" x2="1754.83" y2="2457.67" gradientTransform="matrix(102.27 0 0 -102.27 -178973.96 251507.71)" gradientUnits="userSpaceOnUse"><stop offset="0" stop-color="#c32922"/><stop offset=".49" stop-color="#d44935"/><stop offset="1" stop-color="#86191a"/></linearGradient><linearGradient id="linear-gradient-4" x1="1753.81" y1="2438.04" x2="1755.18" y2="2438.04" gradientTransform="matrix(408.39 0 0 -408.39 -716284.47 995849.57)" gradientUnits="userSpaceOnUse"><stop offset="0"/><stop offset=".51" stop-color="#fff"/><stop offset=".55" stop-color="#f3f3f3"/><stop offset=".63" stop-color="#d3d3d3"/><stop offset=".73" stop-color="#a0a0a0"/><stop offset=".86" stop-color="#595959"/><stop offset="1"/></linearGradient><style>.cls-2{fill:none;stroke-width:0}.cls-19{isolation:isolate}</style><mask id="mask" x="-36.1" y="166.42" width="559.32" height="2.63" maskUnits="userSpaceOnUse"><path style="fill:#000;stroke-width:0" d="M7.66 166.42h488.36v2.59H7.66z"/><g style="clip-path:url(#clippath-5)" class="cls-19"><path style="fill:url(#linear-gradient-4);stroke-width:0" d="M-36.1 166.42h559.32v2.63H-36.1z"/></g></mask></defs><g class="cls-19"><g id="_圖層_1" data-name="圖層 1"><g style="clip-path:url(#clippath)"><path style="fill:url(#linear-gradient);stroke-width:0" d="M33.75 8.77h436.33v87.12H33.75z"/></g><g style="clip-path:url(#clippath-1)"><path style="fill:url(#linear-gradient-2);stroke-width:0" d="M6.96 166.12h164.07v9.36H6.96z"/></g><path style="fill:#f6f6f6;stroke-width:0" d="M171.03 166.12h164.06v9.36H171.03z"/><g style="clip-path:url(#clippath-2)"><path transform="rotate(-33 415.552 170.794)" style="fill:url(#linear-gradient-3);stroke-width:0" d="M345.53 123.05h140.06v95.49H345.53z"/></g><g style="mix-blend-mode:hard-light"><g style="clip-path:url(#clippath-3)"><g style="mix-blend-mode:hard-light;opacity:.91"><g style="clip-path:url(#clippath-4)"><g style="mask:url(#mask)"><g style="clip-path:url(#clippath-6)"><path style="fill:#fff;stroke-width:0" d="M496.02 166.42v2.59H7.66v-2.59"/></g></g></g></g></g></g></g></g></svg>